<svg version="1.2" xmlns="http://www.w3.org/2000/svg" viewBox="0 0 1080 1080" width="1080" height="1080">
	<title>DevBlook logo</title>
	<style>
		.s0 { fill: #0f1722 } 
		.s1 { fill: #ffffff } 
	</style>
	<path id="Background" class="s0" d="m0 540v540h1080v-1080h-1080z"/>
	<g id="Arrow">
		<path id="Upper" class="s1" d="m999.1 509.8c15.8 12.5 18.4 35.5 5.9 51.4-12.6 15.8-35.6 18.4-51.4 5.9l-184-146.1c-15.8-12.6-18.4-35.6-5.8-51.4 12.5-15.9 35.5-18.5 51.4-5.9z"/>
		<path id="Bottom" class="s1" d="m815.4 715.5c-15.8 12.6-38.8 10.1-51.5-5.6-12.6-15.7-10.1-38.8 5.6-51.4l183-147.2c15.8-12.7 38.8-10.2 51.4 5.5 12.7 15.8 10.2 38.8-5.5 51.5z"/>
	</g>
	<g id="Eye">
		<path id="Path 0" class="s1" d="m193 292c-6.9 1.1-19 3.6-27 5.6-8 2-19 5.2-24.5 7.1-5.5 1.9-14.7 5.6-20.5 8.2-5.8 2.5-15 7.1-20.5 10.1-6.2 3.5-12.5 7.9-16.8 12-4.5 4.3-7.9 8.5-9.8 12.5-2.1 4.4-2.9 7.4-2.9 11.3 0 2.8 0.7 6.6 1.5 8.2 1 1.9 3.2 3.8 6.3 5.1 2.6 1.2 7.2 2.4 10.2 2.7 3.3 0.2 8.1-0.2 12-1.2 3.6-0.9 15-5.8 25.5-11 10.4-5.2 23.9-11.2 30-13.4 6.1-2.2 16.2-5.2 22.5-6.6 6.3-1.4 16.4-3.3 22.5-4.2 6.7-0.9 17.6-1.6 28-1.6 9.9 0 21.8 0.7 28.5 1.6 6.3 0.9 16.9 2.9 23.5 4.5 6.6 1.6 16.5 4.6 22 6.6 5.5 2 18.6 7.9 29 13.1 10.4 5.1 21.7 10.1 25 10.9 3.3 0.8 8 1.5 10.5 1.5 2.5 0 6.9-0.7 9.8-1.5 2.8-0.8 6.4-2.6 8-3.9 2.5-2.2 2.7-3 2.7-9.3-0.1-5.5-0.6-7.8-2.9-12.3-1.6-3-5.2-7.9-8-10.9-2.8-3-8-7.3-11.6-9.6-3.6-2.4-10.6-6.3-15.5-8.8-4.9-2.4-12.8-6-17.5-8-4.7-1.9-12.6-4.9-17.5-6.6-4.9-1.8-14.4-4.6-21-6.3-6.6-1.6-17.2-3.9-23.5-5-8.9-1.5-17.6-2-38.5-2.3-23.2-0.4-28.8-0.1-39.5 1.5z"/>
		<path id="Iris" fill-rule="evenodd" class="s1" d="m232.5 377.5c13.2 0.2 22.6 0.8 27.5 1.8 4.1 0.9 11.4 2.7 16.3 4.1 4.8 1.5 13.3 4.7 18.9 7.2 5.7 2.5 13.7 6.6 17.8 9.1 4.1 2.5 10.9 7.1 15 10.1 4.1 3.1 11.8 9.9 17 15.1 5.2 5.3 12.2 13.4 15.6 18.1 3.3 4.7 7.9 11.6 10.2 15.5 2.3 3.9 6.2 11.9 8.7 18 2.5 6.1 5.7 15.1 7 20 1.4 4.9 3.2 13.5 4 19 0.8 5.5 1.5 16.3 1.5 24 0 7.7-0.7 18.5-1.5 24-0.8 5.5-2.7 14.3-4.1 19.5-1.5 5.2-4.7 14.5-7.3 20.5-2.6 6-6.8 14.6-9.5 19-2.7 4.4-7.4 11.4-10.5 15.5-3.1 4.1-9.9 11.8-15.1 17-5.2 5.2-13.3 12.3-18 15.6-4.7 3.4-12.1 8.2-16.5 10.7-4.4 2.6-12.5 6.5-18 8.8-5.5 2.3-14.9 5.4-21 7-6.1 1.5-15.1 3.3-20 3.9-5.6 0.8-15.6 1.1-26.5 0.7-12.6-0.3-20.3-1.1-27.5-2.6-5.5-1.2-14.1-3.5-19-5.2-4.9-1.7-13.5-5.2-19-7.9-5.5-2.6-14.1-7.5-19-10.8-4.9-3.3-13-9.6-17.9-13.9-4.9-4.3-11.8-11.2-15.4-15.3-3.5-4.1-9.1-11.5-12.4-16.5-3.3-5-8.2-13.7-11-19.5-2.8-5.8-6.4-14.5-8-19.5-1.6-5-3.9-13.5-5.1-19-1.8-8.6-2.1-13.2-2.1-32 0-18.8 0.3-23.4 2.1-32 1.2-5.5 3.6-14.3 5.3-19.5 1.7-5.2 5.3-14 8-19.5 2.6-5.5 7.5-14.1 10.8-19 3.3-4.9 8.9-12.4 12.4-16.5 3.6-4.1 10.5-11 15.4-15.3 4.9-4.3 13-10.6 17.9-13.9 4.9-3.3 13.5-8.2 19-10.8 5.5-2.7 14.7-6.5 20.5-8.3 5.8-1.9 14.6-4.2 19.5-5.1 4.9-0.8 10.1-1.8 11.5-2 1.4-0.2 11.5-0.3 22.5-0.1zm-24.5 96.1c-3 0.9-8.4 3.1-12 4.9-3.6 1.8-9 5.2-12.1 7.6-3.1 2.4-7.7 6.9-10.3 9.9-2.6 3-6.7 9.6-9.1 14.5-2.4 5-4.9 11.7-5.6 15-0.6 3.3-1.2 9.8-1.1 14.5 0 4.7 0.7 11.6 1.7 15.5 0.9 3.9 3.4 10.4 5.5 14.5 2.2 4.1 6 10 8.6 13 2.6 3 6.8 7.2 9.3 9.3 2.5 2.1 6.8 5.1 9.6 6.7 2.8 1.6 8.4 4.1 12.5 5.5 4.1 1.4 11.3 3 16 3.6 6.2 0.8 10.8 0.8 17 0 4.7-0.6 11.9-2.2 16-3.6 4.1-1.4 9.8-3.9 12.5-5.5 2.8-1.6 7.1-4.6 9.6-6.7 2.5-2.1 6.7-6.3 9.3-9.3 2.6-3 6.4-8.9 8.6-13 2.1-4.1 4.6-10.6 5.5-14.5 1-3.9 1.7-10.8 1.7-15.5 0.1-4.7-0.5-11.2-1.1-14.5-0.7-3.3-3.2-10-5.6-15-2.4-4.9-6.5-11.5-9.1-14.5-2.6-3-7.2-7.5-10.3-9.9-3.1-2.4-8.7-5.9-12.6-7.8-3.9-2-10.2-4.3-14-5.3-3.8-1-10.6-2-15-2.3-4.4-0.3-10.7-0.1-14 0.4-3.3 0.5-8.5 1.6-11.5 2.5z"/>
		<path id="Pupil" class="s1" d="m216.5 515.4c-2.8 1.3-6.7 4.4-8.8 6.8-2.1 2.3-4.5 6.6-5.4 9.3-1 3.3-1.4 6.9-1.1 10.5 0.3 3 1.3 7.1 2.3 9 0.9 1.9 3.4 5.2 5.4 7.3 2 2.1 5.4 4.8 7.6 6 3 1.6 5.8 2.1 11.5 2.1 5.7 0 8.5-0.5 11.5-2.1 2.2-1.2 5.6-3.9 7.6-6 2-2.1 4.5-5.4 5.4-7.3 1-1.9 2-6 2.3-9 0.3-3.6-0.1-7.2-1.1-10.5-0.9-2.7-3.3-7-5.4-9.3-2.2-2.5-6.1-5.4-9-6.8-3.9-1.7-7-2.4-11.5-2.4-4.5 0.1-7.7 0.8-11.3 2.4z"/>
	</g>
	<g id="Book">
		<path id="Upper" class="s1" d="m573.3 179.7c8.1-26.4 36.1-41.2 62.5-33l47.8 14.8c26.3 8.2 41.1 36.2 32.9 62.5l-16.8 54.5-143.3-44.4z"/>
		<path id="Middle" class="s1" d="m547.5 262.8l143.3 44.3-158.2 511.1-143.3-44.3z"/>
		<path id="Bottom" class="s1" d="m506.9 901.3c-8.2 26.4-36.2 41.2-62.5 33l-47.8-14.8c-26.4-8.1-41.2-36.1-33-62.5l16.9-54.5 143.3 44.4z"/>
	</g>
</svg>